<svg xmlns="http://www.w3.org/2000/svg" viewBox="0 0 263 263.9" enable-background="new 0 0 263 263.9"><path d="M0 243.9h62.4v20h-62.4zm.02 5.404l89.802-89.802 14.142 14.142-89.802 89.802zm-.02-47.804h20v62.4h-20zm200.6 42.4h62.4v20h-62.4zm48.274 19.542l-89.802-89.802 14.142-14.142 89.802 89.802zm-5.874-61.942h20v62.4h-20zm-243-201.5h62.4v20h-62.4zm14.153.448l89.802 89.802-14.142 14.142-89.802-89.802zm-14.153-.448h20v62.4h-20zm200.6 0h62.4v20h-62.4zm62.407 14.576l-89.802 89.802-14.142-14.142 89.802-89.802zm-20.007-14.576h20v62.4h-20z"/></svg>