<svg xmlns="http://www.w3.org/2000/svg" viewBox="440 0 800 800" enable-background="new 440 0 800 800"><path fill="#fa0" d="M440 0h800v800"/><path fill="#fff" d="M988.1 163.6l21.4 43.3c1.1 2.1 3.1 3.7 5.6 4l47.7 7c6 .9 8.4 8.3 4.1 12.6l-34.6 33.7c-1.7 1.7-2.6 4.1-2.1 6.6l8.1 47.6c1 6-5.3 10.6-10.7 7.7l-42.6-22.5c-2.1-1.1-4.7-1.1-6.9 0l-42.7 22.4c-5.4 2.9-11.7-1.7-10.7-7.7l8.1-47.6c.4-2.4-.4-4.9-2.1-6.6l-34.6-33.7c-4.4-4.3-2-11.7 4.1-12.6l47.7-7c2.4-.3 4.4-1.9 5.6-4l21.4-43.3c2.7-5.4 10.5-5.4 13.2.1z"/></svg>